# xmcd
# 
# Track frame offsets:
#     183
#     16275
#     33595
#     50050
#     69030
#     83150
#     102853
#     136733
#     170013
#     202395
#     220358
#     239980
#     258803
#     276883
#     299265
#     313668
# 
# Disc length: 4652
# 
# Revision: 10
# Processed by: cddbd v1.5.2PL0 Copyright (c) Steve Scherf et al.
# Submitted via: fre:ac v1.0.17
# 
DISCID=01122a10,f5122a10
DTITLE=Eric Clapton - Story
DYEAR=1990
DGENRE=Rock
TTITLE0=Cocaïne
TTITLE1=Lay Down Sally
TTITLE2=Wonderful Tonight
TTITLE3=Crossroads
TTITLE4=After Midnight
TTITLE5=I Shot The Sheriff
TTITLE6=Further On Up The Road (Live)
TTITLE7=Rambling On My Mind (Live)
TTITLE8=Layla
TTITLE9=Next Time You See Her
TTITLE10=Knockin' On Heaven's Door
TTITLE11=Sunshine Of Your Love
TTITLE12=Tulsa Time (Live)
TTITLE13=Let It Grow
TTITLE14=Steady Rollin Man
TTITLE15=Have You Ever Loved A Woman? (Live)
EXTD=
EXTT0=
EXTT1=
EXTT2=
EXTT3=
EXTT4=
EXTT5=
EXTT6=
EXTT7=
EXTT8=
EXTT9=
EXTT10=
EXTT11=
EXTT12=
EXTT13=
EXTT14=
EXTT15=
PLAYORDER=
